<svg height="36.156" viewBox="0 0 229.036 36.156" width="229.036" xmlns="http://www.w3.org/2000/svg"><g fill="#212a37" fill-rule="evenodd" transform="translate(-801.844 -478.25)"><path d="m805.89 502.445a17.154 17.154 0 0 1 -4.049 6.975l1.893 1.232a26.97 26.97 0 0 0 2.332-3.806v7.107h2.046v-8.471c.462.616 1.21 1.452 1.826 2.134l1.409-1.65a21.857 21.857 0 0 1 -3.1-3.521h3.191v-2.068h-3.323v-2.729a18.352 18.352 0 0 0 1.98-.638 1.4 1.4 0 0 1 .485-.154c.066 0 .4.088.44.088a.206.206 0 0 0 .22-.2 1.061 1.061 0 0 0 -.33-.484l-1.475-1.43c-1.98 1.276-5.3 1.87-7.217 2.134l.924 1.695c1.079-.176 1.607-.264 2.927-.529v2.245h-3.807v2.068h3.631zm16.172 9.924a53.909 53.909 0 0 0 -3.872-9.264l-2.135 1.012a40.645 40.645 0 0 1 2.157 4.775c-2.6.55-3.7.726-4.533.858.264-1.166.946-4.114 2.354-11.97.2-1.078.22-1.188.44-1.276.33-.11.462-.2.462-.418a.531.531 0 0 0 -.55-.4l-2.508-.33a144.712 144.712 0 0 1 -2.42 14.72c-1.232.2-1.651.242-2.223.308l.572 2.355a.453.453 0 0 0 .4.462.268.268 0 0 0 .22-.11.822.822 0 0 1 .484-.462c2.046-.529 6.116-1.475 8.075-1.959a23.6 23.6 0 0 1 .682 2.465zm14.607-14.589a19.728 19.728 0 0 0 -5.633-2.684l-.924 2.2a16.055 16.055 0 0 1 5.325 2.704zm-7.5 10.694a9.708 9.708 0 0 1 2.464-2.332 7.236 7.236 0 0 1 3.587-1.233 2.531 2.531 0 0 1 2.64 2.619c0 3.74-5.83 3.85-6.931 3.85-.726 0-1.386-.044-1.826-.066l.946 2.443c2.839-.066 10.276-.286 10.276-6.139a4.621 4.621 0 0 0 -4.951-4.863 9.644 9.644 0 0 0 -5.435 1.958 16.72 16.72 0 0 1 1.474-5.038l-2.222-.99c-1.012 2.266-1.452 4.224-2 8.559zm30.406-2.9c-.771 1.694-2.465 5.456-6.073 5.456-2.355 0-2.531-1.892-2.531-4.048 0-3.741.66-9.814.947-10.078.022-.044.22-.132.264-.2a.25.25 0 0 0 .066-.176c0-.242-.154-.264-.639-.352l-2.728-.506c.044.506.088 1.628.088 2.6 0 1.475-.22 7.966-.22 9.286 0 2.222.176 5.875 4.555 5.875 3.718 0 6.579-2.663 8.251-6.425zm20.173 7.041a33.123 33.123 0 0 0 -7.393-7.349c-.946-.683-1.056-.749-1.056-1.013a4.312 4.312 0 0 1 1.474-1.606 59.088 59.088 0 0 0 5.919-5.479.57.57 0 0 1 .506-.242.3.3 0 0 0 .308-.22.924.924 0 0 0 -.528-.616l-1.8-1.54a37.876 37.876 0 0 1 -5.413 6.073c-.352.33-2 1.738-2.31 2.068a2.15 2.15 0 0 0 -.7 1.584c0 1.079.418 1.431 2.794 3.411a35.275 35.275 0 0 1 6.139 6.711zm15.751-6.667c-.528 1.276-1.452 3.322-2.222 3.322-.7 0-1.628-1.452-1.628-4.423a13.059 13.059 0 0 1 1.1-5.456.872.872 0 0 0 .44-.462.972.972 0 0 0 -.594-.484l-2.354-1.079c-.088.484-.528 2.553-.616 2.993a19.982 19.982 0 0 0 -.418 4c0 4.4 1.65 7.922 3.828 7.922 1.32 0 2.552-1.1 4.291-4.775zm11.178 2.486a20.489 20.489 0 0 0 -3.234-9.769l-2.355.99a16.127 16.127 0 0 1 2.883 9.131zm11.438-9.131a16.124 16.124 0 0 1 .375-2.817 4.216 4.216 0 0 0 .4-.484c0-.154-.022-.242-.749-.374l-2.222-.418a11.105 11.105 0 0 1 .264 2.6c0 .661-.022 1.343-.088 2.135a13.4 13.4 0 0 1 -4.268 1.144l.968 2.508c1.672-.594 2.42-.88 3.1-1.166-.088 1.364-.11 1.518-.132 1.782a23.9 23.9 0 0 1 -4.07 5.391l2.31 1.5c.748-1.3 1.518-2.508 1.65-2.728-.022 1.364-.088 3.7-.22 5.237l2.552-.088a79.354 79.354 0 0 1 -.176-8.251c.925-1.123 3.5-4.049 4.709-4.049.33 0 .924.33.924 1.562 0 .2-.616 5.655-.616 6.733 0 2.178 1.1 3.1 2.376 3.1a5.755 5.755 0 0 0 3.983-1.981l-.748-2.508c-1.034 1.188-1.782 1.826-2.442 1.826-.859 0-.859-1.21-.859-1.408a26.474 26.474 0 0 1 .309-3.389 26.419 26.419 0 0 0 .4-3.63 2.519 2.519 0 0 0 -2.421-2.794 4.4 4.4 0 0 0 -2.772 1.254c-.308.22-1.628 1.43-1.958 1.694.132-.264.814-1.474.968-1.738l-.99-.968zm18.326 9.307c2.53-2.772 4.136-4.555 7.173-4.555s3.542 1.827 3.542 3.081a3.621 3.621 0 0 1 -1.584 3.036 4.407 4.407 0 0 0 -4.2-2.882c-2.465 0-3.433 1.54-3.433 2.97 0 2.817 3.037 3.191 4.511 3.191 3.982 0 7.063-2.487 7.063-6.293 0-1.848-.836-5.083-5.215-5.083a6.611 6.611 0 0 0 -1.826.242 34.169 34.169 0 0 1 4.862-5l-1.012-1.738a24.666 24.666 0 0 1 -7.085 1.144c-.616 0-1.672-.066-2.288-.11l.374 2.531c2.332-.154 3.014-.22 5.237-.506a38.959 38.959 0 0 1 -7.987 8.141zm7.107 2.574a4.461 4.461 0 0 1 -1.364.22c-.946 0-2.113-.374-2.113-1.21a1.19 1.19 0 0 1 1.277-1.034 2.305 2.305 0 0 1 2.197 2.02zm22.242-8.691h9v-6.8h-9zm1.958-4.114v-1.079h5.083v1.079zm0 2.508v-1.122h5.083v1.122zm-7.525 6.227c-1.5.374-1.915.462-2.4.55l.462 2.2a.649.649 0 0 0 .265.528 1.973 1.973 0 0 0 .418-.506c.022-.044 5.192-1.958 5.742-2.178a9.807 9.807 0 0 1 -2.156 1.716l1.474 1.232a19.033 19.033 0 0 0 3.191-3.19h1.21a16.573 16.573 0 0 1 -5.237 4.62l1.606 1.189a19.724 19.724 0 0 0 5.567-5.809h1.012a14.8 14.8 0 0 1 -5.236 5.721l1.584 1.078a16.67 16.67 0 0 0 5.523-6.8h.748a18.2 18.2 0 0 1 -.814 3.454c-.4.924-1.189.946-2.487.946l.638 2.267c1.5-.132 2.553-.33 3.169-.946.946-.9 1.584-4.4 1.738-7.371h-7.811c.286-.418.352-.55.55-.859h7.415v-1.606h-12.28v1.606h2.686a14.545 14.545 0 0 1 -2.069 2.729l.154-1.958a24.148 24.148 0 0 1 -2.464.814v-4.709h2.354v-2.068h-2.355v-3.414a.422.422 0 0 1 .132-.374c.286-.22.308-.242.308-.352 0-.176-.308-.2-.506-.22l-2.134-.154v4.511h-2.333v2.068h2.333v5.281zm28.271-.836v-6.953h-7.264a33.662 33.662 0 0 1 .132 3.454c0 4.269-.418 7.415-2.091 10.628l2.311.7a22.692 22.692 0 0 0 1.98-7.833h4.929zm-4.885-2.025v-2.992h2.816v2.992zm13.378-9.373a10.661 10.661 0 0 1 -3.656 1.12c-.4.066-1.716.264-2.046.264-.132 0-1.518-.22-1.738-.242.044 1.386.088 4.445.088 5.9 0 5.237-.968 7.877-4.115 10.628l1.893 1.43c3.124-3.125 4.092-5.831 4.422-10.43h1.87v10.584h2.267v-10.589h2.464v-2.2h-6.557v-2.992c.836-.089 2.288-.243 4.247-.6.264-.044 1.43-.308 1.606-.308.066 0 .44.088.528.088a.188.188 0 0 0 .2-.154 1.167 1.167 0 0 0 -.264-.572zm-7.921 2.926v-2.2h-9.088v2.2zm34.587 10.738c-1.92-1.3-4.07-3.1-7.88-7.745-1.3-1.562-2.16-2.6-3.23-2.6a3 3 0 0 0 -2.31 1.5 48.411 48.411 0 0 1 -5.46 6.469l2.29 1.606a60.273 60.273 0 0 0 4-5.149c.71-.99 1.08-1.518 1.56-1.518s.95.638 1.68 1.65a50.976 50.976 0 0 0 7.48 8.141zm4.99 1.056a2.234 2.234 0 1 0 2.24 2.244 2.236 2.236 0 0 0 -2.243-2.244zm0 .66a1.56 1.56 0 0 1 1.58 1.584 1.58 1.58 0 1 1 -3.16 0 1.573 1.573 0 0 1 1.577-1.588z"/><path d="m966.64 485.759a12.121 12.121 0 0 0 -2.678-2.658 12.442 12.442 0 0 0 1.149-2.089.905.905 0 0 1 .64-.59l-.78-.959a1.247 1.247 0 0 1 -.859.3h-4.058v1.07h3.878a8.867 8.867 0 0 1 -5 5.007l.849.84a9.244 9.244 0 0 0 3.508-2.669 12.441 12.441 0 0 1 2.5 2.659zm3.694-6.476v1.039h4.917v-1.039zm.24 8.035c1.569-.709 2.788-1.429 2.938-4.487h3.028v-1.04h-7.556v1.04h3.389c-.11 1.979-.5 2.948-2.679 3.588zm8.62-4.857v1.109h7.176v-1.109zm16.937-2.689a4.788 4.788 0 0 0 -1.04-.789l-.44.5a4.135 4.135 0 0 1 1.02.849zm-3.019.18a7.109 7.109 0 0 0 -2.089-1.009l-.559.939a7.324 7.324 0 0 1 2.039 1zm-1.039 2.259a7.028 7.028 0 0 0 -2.079-1.089l-.53.979a6.94 6.94 0 0 1 2 1.07zm5.087-3.158a4.554 4.554 0 0 0 -1.139-.8l-.4.48a3.873 3.873 0 0 1 1.1.88zm-6.536 8.055a.459.459 0 0 0 .229.2.159.159 0 0 0 .12-.15.308.308 0 0 1 .2-.249 12.968 12.968 0 0 0 5.567-4.778l-.729-.949a11.038 11.038 0 0 1 -6.077 4.907z"/></g></svg>