<svg height="146" viewBox="0 0 156 146" width="156" xmlns="http://www.w3.org/2000/svg"><path d="m19.273 85.206a2.4 2.4 0 0 1 3.182 1.418c.362.712.758 1.409 1.081 2.138a21.206 21.206 0 0 0 4.18 6.093c.055.057.1.123.16.178 1.81 1.793 3.235 1.528 4.53-.4a19.576 19.576 0 0 0 2.3-4.713c1.128-3.409 2.11-6.871 3.015-10.347a49.18 49.18 0 0 0 .763-4.957 7.223 7.223 0 0 1 .333-1.616 1.747 1.747 0 0 1 3.215 1.366 22.525 22.525 0 0 0 -1.409 9.864 2.088 2.088 0 0 0 1.015 2.156 5.211 5.211 0 0 0 1.33-2.617c.783-2.6 1.558-5.2 2.4-7.778a24.5 24.5 0 0 1 3.232-6.657 2.934 2.934 0 0 1 2.174-1.314 1.548 1.548 0 0 1 1.972 1.259 8.472 8.472 0 0 0 .27.888 8.823 8.823 0 0 0 .776-.9c.3-.468.525-.983.82-1.453a2.455 2.455 0 0 1 1.813-1.023 1.5 1.5 0 0 1 1.586.835c-.1 1.309-.132 2.829-.359 4.319a8.117 8.117 0 0 0 .168 3.079 2.291 2.291 0 0 0 1.097 1.576 3.64 3.64 0 0 0 2.347-1.456c.492-.522.917-1.109 1.423-1.615a1.66 1.66 0 0 1 .824-.383.556.556 0 0 1 .672.5.432.432 0 0 1 -.01.238 8.176 8.176 0 0 1 -3.373 4.475 3.307 3.307 0 0 1 -4.859-1.427 8.561 8.561 0 0 1 -.69-2.26 25.355 25.355 0 0 1 -.2-2.651 43.224 43.224 0 0 0 -2.244 6.814c-.1.468-.161.948-.3 1.4a1.6 1.6 0 0 1 -1.772 1.27 1.2 1.2 0 0 1 -1.209-1.215 6.893 6.893 0 0 1 .234-1.415 25.724 25.724 0 0 0 .64-7.1c-.721-.229-.847.348-1.047.713a43.022 43.022 0 0 0 -3.773 10.071c-.358 1.392-.7 2.788-1.048 4.182-.039.155-.1.3-.144.458a2.979 2.979 0 0 1 -2.435 2.365 3.049 3.049 0 0 1 -3.06-1.494 1.273 1.273 0 0 0 -.79-.885c-.478 1.507-.942 3.016-1.437 4.514a16.81 16.81 0 0 1 -2.483 4.62 5.573 5.573 0 0 1 -2.933 1.981 3.879 3.879 0 0 1 -3.25-.275c-.879-.53-1.69-1.172-2.569-1.791-.445.2-.209.6-.135.957.72 3.433 1.516 6.846 2.018 10.328a95.283 95.283 0 0 1 .944 12.391c.082 6.387-.229 12.763-.776 19.127-.1 1.112-.15 2.232-.327 3.332a7.3 7.3 0 0 1 -.635 1.774 2.671 2.671 0 0 1 -3.557.954 4.072 4.072 0 0 1 -2-2.3 48.966 48.966 0 0 1 -1.469-4.8 64.753 64.753 0 0 1 -1.2-10.681c-.4-6.755-1-13.49-1.841-20.209a70.81 70.81 0 0 1 -.609-10.486 6.4 6.4 0 0 0 -.093-.72 5.207 5.207 0 0 0 -.8 1.085c-2.373 6.7-4.688 13.423-7.089 20.114-1.023 2.852-2.195 5.651-3.339 8.458a10.689 10.689 0 0 1 -1.064 1.867 1.763 1.763 0 0 1 -1.615.867 1.7 1.7 0 0 1 -1.04-.435.764.764 0 0 1 .183-1.064 16.9 16.9 0 0 0 3.634-6.122c2.057-5.626 4.06-11.27 6.1-16.9.814-2.253 1.774-4.46 2.458-6.75 1-3.361 2.538-6.565 3.061-10.066.318-2.132.551-4.275.829-6.413.329-2.53.674-5.057 1-7.587.233-1.822.434-3.648.665-5.47.14-1.11.31-2.215.465-3.323.276-1.974.611-3.942.81-5.925a25.614 25.614 0 0 1 1.04-5.637 10.749 10.749 0 0 0 .451-2.344c.359-3.657 1.369-7.192 2.006-10.8.54-3.059 1.128-6.115 1.836-9.139a69.732 69.732 0 0 1 3.1-10.057c.979-2.442 1.864-4.922 2.807-7.379a14 14 0 0 1 .788-1.747 2.35 2.35 0 0 1 2.246-1.117 1.557 1.557 0 0 1 1.4 1.151c1.291 3.4 2.171 6.86 1.514 10.529-.493 2.75-.947 5.515-1.617 8.225-1.092 4.419-2.32 8.806-3.541 13.192-1.028 3.692-2.138 7.361-3.192 11.046-.549 1.92-1.053 3.853-1.58 5.779-2.152 7.861-4.767 15.578-7.44 23.274-.18.518-.296 1.059-.554 1.993zm-.354-5.16a10.121 10.121 0 0 0 .637-1.176c.521-1.592 1.016-3.192 1.527-4.787 1.241-3.87 2.55-7.719 3.714-11.611 1.323-4.426 2.516-8.891 3.77-13.338.411-1.456.853-2.9 1.25-4.364 1.215-4.467 2.439-8.932 3.614-13.409a56.058 56.058 0 0 0 1.888-11.074 13.831 13.831 0 0 0 -.966-6.322 7.221 7.221 0 0 0 -.7-1.036 8.61 8.61 0 0 0 -.765 1.141c-.48 1.094-.887 2.221-1.373 3.313a77.88 77.88 0 0 0 -5.064 16.178c-.607 2.97-1.277 5.927-1.852 8.9-.955 4.94-1.944 9.874-2.756 14.838-.928 5.672-1.682 11.373-2.5 17.062a37.337 37.337 0 0 0 -.424 5.685zm5.181 62.816a2.915 2.915 0 0 0 .587-.762 9.329 9.329 0 0 0 .375-1.873c.352-4.534.7-9.067.995-13.605.108-1.666.111-3.344.074-5.014-.071-3.186-.078-6.381-.344-9.553a87.8 87.8 0 0 0 -2.671-14.812c-.6-2.31-1.408-4.57-2.184-6.831a4.629 4.629 0 0 0 -2.377-2.844 2.7 2.7 0 0 0 -.34.614 11.627 11.627 0 0 0 -.25 1.407 67.491 67.491 0 0 0 .146 14.8c.319 3.253.771 6.494 1.065 9.75.551 6.117.988 12.245 1.559 18.361a32.812 32.812 0 0 0 1.648 7.71 5.41 5.41 0 0 0 1.717 2.652zm110.241-103.593c-.577.957-1.014 1.813-1.575 2.58-1.254 1.716-2.051 1.887-4.1 1.02-.219-.092-.435-.192-.776-.343-.3.438-.625.866-.893 1.328-.4.689-.753 1.4-1.136 2.1a4.728 4.728 0 0 1 -6.543 2.052c-.143-.071-.289-.135-.544-.254-.541.343-1.113.771-1.741 1.089a2.191 2.191 0 0 1 -3.059-.964 1.239 1.239 0 0 1 .912-1.8 2.568 2.568 0 0 1 .478-.035 2.227 2.227 0 0 0 2.23-2.091c.255-1.169.343-2.377.632-3.536.423-1.7.9-3.394 1.465-5.05s1.289-3.263 1.929-4.9a2.6 2.6 0 0 1 1.065-1.537 2.27 2.27 0 0 1 2.264-.277 2.858 2.858 0 0 1 1.575 2.506 4.182 4.182 0 0 1 -.293 1.642 40.38 40.38 0 0 1 -3.065 7c-.86 1.43-1.583 2.945-2.333 4.439-.374.743-.343.763.514 1.841a2.5 2.5 0 0 0 2.441-1.584c1.262-2.4 2.61-4.767 3.707-7.243a25.7 25.7 0 0 0 2.631-8.66 1.711 1.711 0 0 1 2.53-1.309 1.282 1.282 0 0 1 .762 1.357 10.244 10.244 0 0 1 -.5 1.583 50.26 50.26 0 0 0 -2.5 9.213 4.358 4.358 0 0 0 .048.895 1.574 1.574 0 0 0 1.209-1.165c1.5-3.1 2.915-6.213 3.279-9.7a1.832 1.832 0 0 1 2.925-1.182 14.777 14.777 0 0 0 1.142 1.107 5.694 5.694 0 0 0 1.53.373c1.259 1.346.253 2.841.52 4.412a2.844 2.844 0 0 0 .8-.709c.625-1.469 1.192-2.963 1.775-4.45a3.425 3.425 0 0 0 -.229-2.788 3.5 3.5 0 0 1 -.251-2.328 2.435 2.435 0 0 1 2.608-1.984 2.573 2.573 0 0 1 2.457 2.693c-.047.691-.229 1.371-.376 2.209a2.694 2.694 0 0 0 .888-.136c1.034-.6 2.04-1.242 3.059-1.864.944-.576 1.892-1.146 3.243-1.963a4.921 4.921 0 0 1 -.53 1.438c-1.248 1.23-2.534 2.422-3.833 3.6a5.048 5.048 0 0 1 -3.957 1.363 4.352 4.352 0 0 0 -.826.109c-.227.639-.438 1.32-.709 1.976q-1.049 2.538-2.148 5.055a6.5 6.5 0 0 1 -.728 1.236 1.764 1.764 0 0 1 -2.529.525 14.66 14.66 0 0 1 -1.5-1.15c-1.879 2.857-1.23 2.257-3.944 2.261zm-11.017-5.726c-1.314 1.871-1.467 2.246-1.642 3.93a10.267 10.267 0 0 0 1.642-3.93zm-16.069 10.116a1.224 1.224 0 0 0 .388-.346q.78-4.846 1.531-9.7a70.639 70.639 0 0 1 3.831-15.533 61.539 61.539 0 0 1 3.041-6.737c1.332-2.437 2.288-5.078 3.424-7.623a8.8 8.8 0 0 1 .895-1.686 2.736 2.736 0 0 1 2.416-1.303 1.177 1.177 0 0 1 1.243.906.885.885 0 0 1 -.7 1.249 2.88 2.88 0 0 0 -1.6 1.7c-1.715 3.245-3.459 6.48-5.022 9.8-1.153 2.448-2.108 5-3.034 7.543a55.971 55.971 0 0 0 -2.479 10.706c-.654 4.26-1.072 8.556-1.605 12.834a12.317 12.317 0 0 0 .024 4.286c.238 1.063-.081 1.5-.862 1.643a1.8 1.8 0 0 1 -2.13-1.084c-.282-.99-.417-2.025-.74-3-1.5-4.516-1.77-9.224-2.27-13.9-.195-1.815-.44-3.625-.668-5.436-.1-.783-.213-1.564-.337-2.462a1.625 1.625 0 0 0 -.62.37 55.591 55.591 0 0 0 -3.478 11.686 57.747 57.747 0 0 0 -.573 14.08c.154 1.66.335 3.365 1.714 4.6a1.244 1.244 0 0 1 .242.409.971.971 0 0 1 -.211 1.292 1.09 1.09 0 0 1 -1.322.2 3.926 3.926 0 0 1 -2.053-2.815 28.3 28.3 0 0 1 -.352-3.8 74.565 74.565 0 0 1 .152-10.038c.152-1.339.215-2.7.5-4.013a46.654 46.654 0 0 1 2.177-8.587c1.08-2.562 1.972-5.2 2.95-7.809a1.379 1.379 0 0 1 1.5-.926 1.173 1.173 0 0 1 1.209 1.231c.289 2.457.536 4.918.8 7.378.423 3.968.833 7.938 1.275 11.9a8.3 8.3 0 0 0 .744 2.985zm-40.079 28.293a14.37 14.37 0 0 0 1.1-1.8c1.077-2.746 2.089-5.515 3.073-8.3a62.421 62.421 0 0 0 2.751-10.632 18.466 18.466 0 0 1 .9-2.971 44.092 44.092 0 0 0 1.473-5.763c.854-4.228 2.325-8.284 3.353-12.461.17-.69.281-1.394.468-2.078.545-1.993 1.1-3.985 1.681-5.968.429-1.452.909-2.89 1.379-4.329.2-.605.4-1.212.651-1.794a1.791 1.791 0 0 1 1.034-1.236c.5-.155.833-.1 2.09.564a9.38 9.38 0 0 1 -.229 1.316c-1.233 3.8-2.5 7.584-3.729 11.385-.88 2.73-1.75 5.465-2.547 8.22-1.132 3.912-2.2 7.842-3.28 11.77-.4 1.464-.745 2.943-1.1 4.418a14.177 14.177 0 0 0 .188 6.877 7.639 7.639 0 0 0 1.534 3.2 2.007 2.007 0 0 0 2.121.776 7.751 7.751 0 0 0 2.613-1.063c1.47-1.085 2.8-2.358 4.179-3.566.419-.368.777-.81 1.218-1.147a2.888 2.888 0 0 1 .925-.265c.2 1.242-.628 1.943-1.17 2.606a16.129 16.129 0 0 1 -5.507 4.526c-.431.2-.881.371-1.33.534a4.882 4.882 0 0 1 -6.026-2.561c-.141-.284-.226-.6-.364-.882a5.45 5.45 0 0 0 -.355-.566c-.52-.124-.53.275-.619.543-1.007 3.03-1.98 6.072-3.017 9.091-.335.976-.843 1.892-1.253 2.843a2.383 2.383 0 0 1 -2.536 1.4 2.167 2.167 0 0 1 -2.093-1.686 8.274 8.274 0 0 1 -.437-2.569 19.018 19.018 0 0 1 1.143-7.055c.251-.58.309-1.24.506-1.846a11.286 11.286 0 0 1 .7-1.775c1.131-2.145 2.549-2.549 4.937-1.453a.8.8 0 0 1 -.583 1.122c-1.859.383-2.455 1.791-2.987 3.369a18.545 18.545 0 0 0 -1.226 7.511c.035.382.164.757.371 1.695zm-28.048-13.284a1.762 1.762 0 0 1 .5-.545 2.153 2.153 0 0 1 2.06-.039c1.328.713 2.656 1.426 3.963 2.176a2.972 2.972 0 0 1 .855.8.714.714 0 0 1 .016.638.9.9 0 0 1 -.555.374 1.35 1.35 0 0 1 -.7-.078q-2.8-.993-5.592-2.017a.964.964 0 0 1 -.547-1.309z" fill="#37414f" fill-rule="evenodd"/></svg>